<svg width="483" height="169" viewBox="0 0 483 169" fill="none" xmlns="http://www.w3.org/2000/svg">
<path d="M404.775 75.9286L434.599 0.716797H36.8299L0.163086 93.027H114.746L84.8693 168.239H445.451L482.075 75.9286H404.775Z" fill="#312782"/>
<path d="M131.483 150.614C128.669 150.408 126.222 150.153 124.144 149.85V141.91C125.965 142.116 128.106 142.277 130.567 142.394C133.028 142.51 135.171 142.572 136.996 142.582C138.664 142.631 140.333 142.516 141.978 142.239C143.014 142.012 143.689 141.659 143.993 141.17C144.348 140.449 144.504 139.646 144.446 138.844C144.488 138.122 144.398 137.397 144.181 136.707C144.077 136.492 143.928 136.303 143.744 136.152C143.56 136.001 143.346 135.892 143.116 135.832C142.207 135.587 141.278 135.425 140.34 135.348L131.367 134.202C129.035 133.951 127.268 133.341 126.066 132.374C124.857 131.415 123.99 130.088 123.594 128.593C123.115 126.609 122.898 124.57 122.949 122.529C122.949 119.167 123.591 116.636 124.876 114.937C126.172 113.229 128.03 112.038 130.119 111.577C132.932 110.983 135.803 110.713 138.677 110.774C140.907 110.774 143.278 110.888 145.79 111.117C147.846 111.281 149.89 111.575 151.91 111.997V119.783C147.995 119.349 144.061 119.12 140.123 119.096C138.548 119.071 136.973 119.134 135.405 119.285C134.985 119.272 134.567 119.352 134.182 119.521C133.797 119.69 133.453 119.942 133.177 120.259C132.9 120.577 132.697 120.953 132.583 121.358C132.468 121.764 132.445 122.191 132.514 122.607C132.479 123.301 132.555 123.997 132.741 124.666C132.825 124.876 132.956 125.063 133.123 125.215C133.289 125.366 133.488 125.478 133.704 125.542C134.511 125.783 135.339 125.945 136.176 126.025L145.911 127.166C147.539 127.318 149.126 127.772 150.59 128.506C151.819 129.249 152.738 130.414 153.177 131.784C153.756 133.335 154.046 135.613 154.05 138.617C154.05 142.128 153.467 144.76 152.3 146.513C151.165 148.246 149.432 149.496 147.433 150.024C145.352 150.611 142.589 150.904 139.145 150.904C136.848 150.914 134.294 150.817 131.483 150.614Z" fill="white"/>
<path d="M166.121 150.304V119.782H158.666V111.388H166.121V100.092H176.24V111.388H185.064V119.782H176.236V150.304H166.121Z" fill="white"/>
<path d="M192.166 148.244C190.268 146.465 189.318 143.515 189.318 139.395C189.318 136.339 189.672 133.947 190.379 132.219C191.061 130.519 192.389 129.161 194.07 128.443C195.817 127.656 198.29 127.261 201.486 127.258C204.124 127.258 208.078 127.36 213.35 127.563V126.112C213.35 123.823 213.109 122.221 212.627 121.305C212.145 120.39 211.246 119.8 209.929 119.536C207.66 119.222 205.37 119.094 203.081 119.154C201.51 119.154 199.558 119.231 197.226 119.386C194.894 119.541 193.043 119.692 191.675 119.84V111.997C196.543 111.171 201.473 110.761 206.411 110.774C211.374 110.774 215.069 111.322 217.494 112.418C219.92 113.514 221.516 115.142 222.284 117.302C223.046 119.465 223.426 122.555 223.426 126.571V150.304H213.957L213.654 145.575H213.119C212.088 147.591 210.314 149.125 208.175 149.85C205.814 150.597 203.349 150.958 200.874 150.918C196.971 150.918 194.068 150.027 192.166 148.244ZM209.736 142.33C210.735 141.982 211.6 141.328 212.208 140.459C212.969 139.24 213.35 137.334 213.35 134.739V133.515H204.223C203.096 133.471 201.969 133.586 200.874 133.858C200.545 133.952 200.243 134.122 199.991 134.355C199.74 134.587 199.547 134.876 199.428 135.198C199.125 136.212 198.996 137.27 199.048 138.327C199.048 139.7 199.208 140.691 199.53 141.3C199.729 141.627 199.994 141.908 200.309 142.125C200.624 142.342 200.98 142.489 201.356 142.558C202.771 142.838 204.213 142.955 205.654 142.906C207.038 142.951 208.418 142.756 209.736 142.33Z" fill="white"/>
<path d="M237.608 150.304V119.782H230.158V111.388H237.608V100.092H247.728V111.388H256.527V119.782H247.723V150.304H237.608Z" fill="white"/>
<path d="M263.467 102.837V93.6016H273.876V102.837H263.467ZM263.544 150.303V111.387H273.731V150.303H263.544Z" fill="white"/>
<path d="M288.813 149.202C287.642 148.686 286.607 147.903 285.789 146.916C284.971 145.929 284.393 144.765 284.101 143.515C283.416 140.872 283.074 136.623 283.074 130.769C283.074 124.914 283.421 120.686 284.115 118.085C284.405 116.849 284.978 115.698 285.79 114.724C286.601 113.75 287.628 112.98 288.789 112.476C291.221 111.354 295.253 110.793 300.885 110.793C306.516 110.793 310.547 111.354 312.975 112.476C314.136 112.981 315.164 113.751 315.976 114.725C316.788 115.699 317.363 116.849 317.654 118.085C318.339 120.706 318.681 124.94 318.681 130.788C318.681 136.636 318.339 140.884 317.654 143.534C317.36 144.784 316.781 145.948 315.963 146.935C315.144 147.922 314.108 148.704 312.937 149.221C310.479 150.362 306.463 150.934 300.89 150.937C295.316 150.941 291.29 150.362 288.813 149.202ZM306.32 141.779C307.284 141.295 307.92 140.328 308.147 138.878C308.373 137.427 308.489 134.758 308.489 130.788C308.489 126.818 308.373 124.139 308.147 122.737C307.92 121.334 307.308 120.396 306.32 119.913C305.333 119.429 303.521 119.187 300.885 119.187C298.249 119.187 296.432 119.429 295.444 119.913C294.456 120.396 293.849 121.339 293.623 122.737C293.396 124.134 293.276 126.823 293.276 130.788C293.276 134.753 293.391 137.427 293.632 138.878C293.873 140.328 294.466 141.295 295.454 141.779C296.442 142.263 298.254 142.543 300.894 142.543C303.535 142.543 305.333 142.263 306.32 141.779Z" fill="white"/>
<path d="M352.143 129.69C352.143 126.437 352.003 124.181 351.724 122.92C351.444 121.649 350.871 120.822 350.013 120.44C349.156 120.058 347.604 119.864 345.45 119.864C343.296 119.864 341.657 120.198 340.631 120.86C340.096 121.216 339.638 121.676 339.285 122.214C338.932 122.751 338.692 123.355 338.578 123.989C338.197 126.026 338.035 128.097 338.096 130.169V150.314H327.977V111.388H337.484L337.788 116.194H338.395C339.316 114.354 340.851 112.896 342.732 112.074C344.66 111.207 347.119 110.773 350.11 110.773C353.502 110.773 356.087 111.334 357.863 112.456C359.629 113.562 360.897 115.313 361.4 117.34C361.982 119.474 362.274 122.348 362.277 125.962V150.304H352.158L352.143 129.69Z" fill="white"/>
<path d="M144.917 58.0024H120.731C120.731 60.749 120.934 62.688 121.338 63.805C121.743 64.922 122.659 65.6715 124.08 66.0535C125.502 66.4355 128.008 66.629 131.607 66.629C134.602 66.629 138.531 66.4243 143.394 66.0149V73.8001C141.289 74.2244 139.16 74.5183 137.019 74.6801C134.381 74.9058 131.797 75.0202 129.265 75.0234C123.637 75.0234 119.504 74.3868 116.866 73.1134C115.631 72.5624 114.533 71.7424 113.652 70.7128C112.771 69.6833 112.129 68.47 111.773 67.1609C111.012 64.4691 110.631 60.425 110.631 55.0286C110.631 49.7868 111.024 45.8056 111.811 43.0848C112.171 41.7751 112.795 40.5537 113.646 39.4971C114.496 38.4405 115.555 37.5712 116.756 36.9437C119.261 35.5639 123.152 34.8757 128.427 34.8789C133.599 34.8789 137.352 35.5543 139.684 36.905C140.799 37.5197 141.768 38.3705 142.522 39.3983C143.277 40.4262 143.8 41.6066 144.055 42.8575C144.636 45.4784 144.928 49.5354 144.932 55.0286L144.917 58.0024ZM123.319 43.6167C122.817 43.8317 122.373 44.1629 122.023 44.5831C121.673 45.0033 121.427 45.5006 121.305 46.0345C120.983 47.2047 120.792 49.1115 120.731 51.7549H135.332C135.332 49.1115 135.13 47.1773 134.725 45.9523C134.59 45.4186 134.335 44.9232 133.979 44.5041C133.623 44.085 133.176 43.7533 132.672 43.5345C131.709 43.1541 130.239 42.9623 128.263 42.9591C125.979 42.9655 124.331 43.1847 123.319 43.6167Z" fill="white"/>
<path d="M158.034 73.2305C156.136 72.0377 154.741 70.002 153.852 67.1232C152.962 64.2445 152.518 60.2149 152.522 55.0344C152.522 49.8475 152.952 45.8034 153.813 42.9021C154.674 40.0008 156.044 37.9392 157.923 36.7174C159.796 35.4989 162.357 34.888 165.605 34.8848C167.941 34.8219 170.27 35.1705 172.486 35.9147C174.377 36.6374 175.952 38.0076 176.934 39.7832H177.469V17.709H187.588V74.4103H178.153L177.845 69.6038H177.238C176.291 71.5322 174.668 73.041 172.679 73.8398C170.493 74.6659 168.171 75.0679 165.836 75.0245C162.537 75.0406 159.936 74.4426 158.034 73.2305ZM174.351 65.2906C175.323 64.7871 176.093 63.9645 176.534 62.9598C176.928 61.9319 177.172 60.852 177.257 59.7539C177.382 58.487 177.45 56.8816 177.45 54.9474C177.45 53.0131 177.382 51.4368 177.257 50.2182C177.167 49.1458 176.924 48.0921 176.534 47.0896C176.145 46.0354 175.369 45.1703 174.365 44.6719C173.379 44.1883 171.974 43.9465 170.149 43.9465C167.74 43.9465 166.077 44.1786 165.089 44.6332C164.101 45.0877 163.456 46.0355 163.162 47.4571C162.868 48.8788 162.704 51.3787 162.704 54.9377C162.704 58.4966 162.853 61.0063 163.162 62.4569C163.47 63.9076 164.125 64.8747 165.089 65.3147C166.053 65.7548 167.764 66.0014 170.149 66.0014C171.99 66.0159 173.387 65.7789 174.351 65.2906Z" fill="white"/>
<path d="M201.65 74.4094V43.8875H194.2V35.4931H201.65V24.1973H211.77V35.4931H220.593V43.8875H211.765V74.4094H201.65Z" fill="white"/>
<path d="M260.137 58.0024H235.951C235.951 60.749 236.153 62.688 236.558 63.805C236.963 64.922 237.878 65.6715 239.295 66.0535C240.712 66.4355 243.222 66.629 246.827 66.629C249.815 66.629 253.744 66.4243 258.614 66.0149V73.8001C256.504 74.225 254.37 74.5189 252.224 74.6801C249.587 74.9058 247 75.0202 244.466 75.0234C238.84 75.0234 234.709 74.3868 232.072 73.1134C230.835 72.5632 229.737 71.7435 228.855 70.7139C227.974 69.6842 227.333 68.4705 226.978 67.1609C226.217 64.4691 225.836 60.425 225.836 55.0286C225.836 49.7868 226.229 45.8056 227.017 43.0848C227.375 41.7762 227.998 40.5556 228.847 39.4991C229.696 38.4426 230.753 37.5727 231.951 36.9437C234.463 35.5639 238.355 34.8757 243.627 34.8789C248.799 34.8789 252.552 35.5543 254.884 36.905C255.999 37.5204 256.967 38.3715 257.721 39.3992C258.476 40.427 258.999 41.6069 259.255 42.8575C259.84 45.4784 260.132 49.5354 260.132 55.0286L260.137 58.0024ZM238.534 43.6167C238.032 43.8327 237.589 44.1641 237.239 44.5842C236.889 45.0042 236.642 45.5011 236.519 46.0345C236.198 47.2047 236.009 49.1115 235.951 51.7549H250.552C250.552 49.1115 250.35 47.1773 249.945 45.9523C249.808 45.4194 249.552 44.9248 249.196 44.5059C248.84 44.087 248.394 43.7548 247.892 43.5345C246.928 43.1541 245.457 42.9623 243.478 42.9591C241.2 42.9655 239.552 43.1847 238.534 43.6167Z" fill="white"/>
<path d="M290.173 74.7188C288.095 74.9219 286.093 75.0234 284.169 75.0234C279.196 75.0234 275.545 74.2981 273.215 72.8474C272.085 72.1627 271.105 71.2552 270.334 70.1797C269.563 69.1043 269.017 67.8833 268.729 66.5903C268.07 63.8695 267.741 59.964 267.741 54.8738C267.741 50.0383 268.096 46.2488 268.806 43.5055C269.44 40.8582 271.089 38.5683 273.394 37.1323C275.755 35.6332 279.289 34.8821 283.995 34.8789C285.99 34.8835 287.983 34.9981 289.966 35.2222C291.72 35.4015 293.46 35.6954 295.175 36.1023V43.96C292.36 43.4891 289.509 43.2594 286.655 43.2734C283.973 43.2734 282.045 43.5796 280.873 44.1921C279.7 44.8046 278.927 45.8862 278.555 47.4368C278.176 48.9906 277.985 51.4954 277.981 54.9512C277.981 58.4618 278.185 60.9924 278.593 62.5429C278.998 64.0951 279.793 65.1638 281.003 65.7489C282.212 66.334 284.13 66.629 286.819 66.629C288.644 66.629 291.535 66.4243 295.493 66.0149V73.8774C293.741 74.2784 291.963 74.5596 290.173 74.7188Z" fill="white"/>
<path d="M327.972 53.8062C327.972 50.5535 327.833 48.2969 327.553 47.0364C327.274 45.776 326.703 44.9491 325.842 44.5558C324.98 44.1738 323.462 43.9804 321.279 43.9804C319.096 43.9804 317.491 44.314 316.46 44.9765C315.925 45.3323 315.468 45.7929 315.115 46.3305C314.763 46.8681 314.522 47.4717 314.407 48.1051C314.026 50.1417 313.864 52.2136 313.925 54.2849V74.4297H303.806V17.709H313.925V40.0733H314.537C315.504 38.3437 317.013 36.9835 318.831 36.2049C320.681 35.3893 323.052 34.9815 325.944 34.9815C329.339 34.9815 331.925 35.5408 333.702 36.6594C335.457 37.755 336.723 39.4867 337.239 41.4949C337.821 43.6064 338.111 46.4691 338.111 50.0828V74.4249H327.992L327.972 53.8062Z" fill="white"/>
<path d="M49.8118 46.1749L82.1609 25.2903L78.7154 16.625L38.9886 42.2678L38.9404 49.9369L79.5684 76.9047L83.0187 68.2152L49.8118 46.1749Z" fill="#5498D2"/>
<path d="M356.875 75.5407H367.515L390.27 18.1914H379.625L356.875 75.5407Z" fill="#5498D2"/>
<path d="M443.76 125.28L443.712 117.611L403.985 91.9629L400.544 100.633L432.893 121.513L399.682 143.558L403.137 152.247L443.76 125.28Z" fill="#5498D2"/>
</svg>
